#!OML:ASF F:\VICON\USERDATA\INSTALL\rory3\rory3.ASF
:FULLY-SPECIFIED
:DEGREES
109
root 10.9716 18.7228 3.69722 1.72185 -66.0167 -1.45633
lowerback 3.37295 -2.45672 -2.12799
upperback 0.817069 -3.34284 1.05377
thorax -0.864988 -1.67193 2.40281
lowerneck -2.11046 -8.25441 -7.82451
upperneck 27.4342 -12.5801 3.16809
head 9.72736 -6.66036 1.19282
rclavicle 7.93586e-015 -2.78299e-015
rhumerus -40.2403 -3.73049 -71.3321
rradius 28.743
rwrist 17.6244
rhand -22.3834 5.26278
rfingers 7.12502
rthumb 4.03852 -24.6787
lclavicle 7.93586e-015 -2.78299e-015
lhumerus -27.8624 10.0842 75.3541
lradius 20.9694
lwrist -12.3766
lhand -23.3203 24.1983
lfingers 7.12502
lthumb 3.13382 54.155
rfemur -7.35855 11.6455 17.7411
rtibia 27.3204
rfoot -22.0179 -24.7361
rtoes 2.68974
lfemur -3.34747 6.27573 -17.8254
ltibia 23.4442
lfoot -40.9068 36.7175
ltoes 18.7591
110
root 10.945 18.7125 3.62131 2.12587 -66.1397 -1.69538
lowerback 3.65432 -2.5979 -2.05313
upperback 0.681368 -3.53181 1.20728
thorax -1.1456 -1.76114 2.54436
lowerneck -2.08285 -8.18027 -7.92196
upperneck 27.5203 -12.4947 3.19619
head 9.75687 -6.63218 1.2261
rclavicle -5.48459e-014 -4.07509e-015
rhumerus -40.2523 -3.882 -71.1332
rradius 28.7159
rwrist 17.8159
rhand -22.2865 5.58414
rfingers 7.12502
rthumb 4.13207 -24.3555
lclavicle -5.48459e-014 -4.07509e-015
lhumerus -28.1662 9.76922 75.4508
lradius 21.5925
lwrist -12.0564
lhand -23.3219 24.3238
lfingers 7.12502
lthumb 3.13219 54.2806
rfemur -7.45117 11.7283 18.105
rtibia 27.1485
rfoot -22.2845 -24.6096
rtoes 3.2756
lfemur -3.79115 7.36352 -17.2341
ltibia 23.8539
lfoot -39.5751 36.443
ltoes 17.6565
111
root 10.908 18.6984 3.56499 2.53174 -66.5892 -2.14523
lowerback 3.83177 -2.65468 -1.6967
upperback 0.681105 -3.59566 1.29497
thorax -1.25764 -1.79301 2.44777
lowerneck -2.12027 -8.11876 -7.97789
upperneck 27.6581 -12.4275 3.20696
head 9.81429 -6.60909 1.24052
rclavicle -2.39722e-014 -3.37934e-015
rhumerus -40.2516 -3.90867 -71.0351
rradius 28.7494
rwrist 17.6848
rhand -22.1449 6.17128
rfingers 7.12502
rthumb 4.26887 -23.7657
lclavicle -2.39722e-014 -3.37934e-015
lhumerus -28.492 9.8791 75.3479
lradius 22.2277
lwrist -12.296
lhand -22.8856 24.3056
lfingers 7.12502
lthumb 3.55362 54.2557
rfemur -7.37034 11.9945 18.485
rtibia 27.0323
rfoot -22.3345 -24.2896
rtoes 3.33663
lfemur -3.86703 8.04652 -16.7351
ltibia 24.2094
lfoot -39.0757 36.4622
ltoes 17.011
112
root 10.8593 18.6834 3.5131 2.043 -67.265 -1.6743
lowerback 3.83214 -2.63503 -1.69313
upperback 0.76373 -3.5706 1.23799
thorax -1.17824 -1.7825 2.38355
lowerneck -2.19621 -8.0626 -7.95999
upperneck 27.7785 -12.3616 3.19107
head 9.86539 -6.58049 1.23271
rclavicle -5.83433e-014 1.25234e-014
rhumerus -40.2339 -3.95831 -71.0051
rradius 28.8308
rwrist 17.6234
rhand -22.3722 6.07056
rfingers 7.12502
rthumb 4.0494 -23.8707
lclavicle -5.83433e-014 1.25234e-014
lhumerus -28.7057 9.46285 75.3653
lradius 22.7909
lwrist -11.9961
lhand -22.8186 24.0609
lfingers 7.12502
lthumb 3.61825 54.0099
rfemur -7.2985 12.3196 18.4489
rtibia 27.0027
rfoot -22.1931 -23.9822
rtoes 2.94973
lfemur -3.7919 8.53538 -16.7099
ltibia 24.5209
lfoot -39.0906 36.6332
ltoes 16.2748
113
root 10.8094 18.6728 3.45838 0.993243 -67.9098 -0.619889
lowerback 3.8457 -2.61523 -1.97464
upperback 0.857778 -3.55675 1.18454
thorax -1.07619 -1.77742 2.48274
lowerneck -2.14626 -8.00704 -8.02679
upperneck 27.6891 -12.2668 3.15656
head 9.81948 -6.54822 1.24616
rclavicle 4.98453e-014 -8.34896e-015
rhumerus -40.1718 -4.16097 -70.8331
rradius 28.8997
rwrist 17.9454
rhand -22.4111 5.87205
rfingers 7.12502
rthumb 4.0118 -24.0699
lclavicle 4.98453e-014 -8.34896e-015
lhumerus -28.8593 8.9325 75.4963
lradius 23.2563
lwrist -11.5632
lhand -22.9432 23.8578
lfingers 7.12502
lthumb 3.49793 53.8088
rfemur -7.21929 12.625 18.1698
rtibia 27.0105
rfoot -22.3212 -23.4569
rtoes 3.54469
lfemur -3.70844 9.21392 -16.856
ltibia 24.8275
lfoot -38.8456 36.7682
ltoes 16.3275
114
root 10.7622 18.6683 3.4032 0.630656 -68.4972 -0.360868
lowerback 4.01539 -2.62817 -1.9783
upperback 0.923521 -3.5771 1.25669
thorax -1.09743 -1.78861 2.56666
lowerneck -2.02733 -7.93911 -8.13521
upperneck 27.5709 -12.1462 3.08976
head 9.74962 -6.51301 1.26193
rclavicle -1.39646e-014 -2.18663e-015
rhumerus -40.1083 -4.11576 -70.7075
rradius 28.9862
rwrist 18.069
rhand -22.3143 5.90808
rfingers 7.12502
rthumb 4.10523 -24.0321
lclavicle -1.39646e-014 -2.18663e-015
lhumerus -29.1119 8.62152 75.6032
lradius 23.7534
lwrist -11.1546
lhand -22.8942 24.0812
lfingers 7.12502
lthumb 3.54522 54.0315
rfemur -7.09095 12.95 18.2165
rtibia 27.0485
rfoot -22.6073 -22.6973
rtoes 4.58645
lfemur -3.60809 9.93682 -16.619
ltibia 25.1732
lfoot -38.3162 36.9217
ltoes 16.8712
115
root 10.7171 18.6637 3.34749 0.436643 -69.0579 -0.310096
lowerback 4.2251 -2.63058 -1.84584
upperback 1.00179 -3.57866 1.30037
thorax -1.1394 -1.79054 2.54651
lowerneck -1.97068 -7.87305 -8.15178
upperneck 27.5499 -12.0495 3.04239
head 9.72288 -6.47793 1.26203
rclavicle -6.68413e-015 2.18663e-015
rhumerus -40.0602 -4.00033 -70.6823
rradius 29.1176
rwrist 18.0094
rhand -22.4282 5.689
rfingers 7.12502
rthumb 3.99533 -24.2533
lclavicle -6.68413e-015 2.18663e-015
lhumerus -29.3526 8.19815 75.7235
lradius 24.253
lwrist -10.5887
lhand -23.1132 24.3248
lfingers 7.12502
lthumb 3.33374 54.2785
rfemur -7.02361 12.8964 18.3671
rtibia 27.0858
rfoot -22.1203 -22.1861
rtoes 3.42535
lfemur -3.53535 10.5267 -16.3028
ltibia 25.6393
lfoot -37.9385 37.0313
ltoes 15.8095
116
root 10.6738 18.6529 3.29329 0.416823 -69.654 -0.474413
lowerback 4.44899 -2.58038 -1.59589
upperback 1.11046 -3.50485 1.35992
thorax -1.16828 -1.75573 2.47331
lowerneck -1.97175 -7.84988 -8.24999
upperneck 27.5604 -12.0176 3.05795
head 9.73285 -6.47234 1.28568
rclavicle 4.27636e-014 1.98785e-016
rhumerus -40.0036 -3.84841 -70.6628
rradius 29.2831
rwrist 17.7252
rhand -22.4076 5.48408
rfingers 7.12502
rthumb 4.01519 -24.4578
lclavicle 4.27636e-014 1.98785e-016
lhumerus -29.4966 7.88347 75.8925
lradius 24.6483
lwrist -10.3397
lhand -23.2658 24.1729
lfingers 7.12502
lthumb 3.18642 54.1288
rfemur -6.96533 12.4535 18.6255
rtibia 27.0678
rfoot -21.1603 -21.806
rtoes 1.15954
lfemur -3.50435 11.1633 -15.8902
ltibia 26.2665
lfoot -37.664 36.9973
ltoes 14.6099
117
root 10.6293 18.6438 3.23983 1.05823 -70.3053 -1.29763
lowerback 4.62559 -2.55275 -1.12524
upperback 1.22641 -3.44967 1.45371
thorax -1.17282 -1.73104 2.30991
lowerneck -1.99554 -7.79269 -8.22496
upperneck 27.548 -11.9302 3.0154
head 9.72209 -6.43427 1.2757
rclavicle 2.73826e-014 8.74653e-015
rhumerus -39.8843 -3.45834 -70.8451
rradius 29.4258
rwrist 17.3771
rhand -22.4743 5.54301
rfingers 7.12502
rthumb 3.95073 -24.4001
lclavicle 2.73826e-014 8.74653e-015
lhumerus -29.6283 7.85328 75.8731
lradius 24.9788
lwrist -10.359
lhand -23.0199 23.7818
lfingers 7.12502
lthumb 3.42384 53.734
rfemur -6.79751 12.3735 19.088
rtibia 26.9873
rfoot -21.4372 -20.8534
rtoes 2.90228
lfemur -3.55656 12.0981 -15.1941
ltibia 27.0189
lfoot -37.0632 36.8259
ltoes 13.6264
118
root 10.5845 18.6426 3.18885 1.89572 -70.8675 -2.22928
lowerback 4.67781 -2.59935 -0.576323
upperback 1.33652 -3.48883 1.51956
thorax -1.11577 -1.75357 2.07254
lowerneck -2.02779 -7.69171 -7.90883
upperneck 27.4817 -11.7379 2.72117
head 9.64978 -6.34302 1.14648
rclavicle -4.47266e-016 -7.15625e-015
rhumerus -39.6881 -3.15305 -71.0572
rradius 29.5216
rwrist 17.3633
rhand -22.5231 5.65051
rfingers 7.12502
rthumb 3.90366 -24.2935
lclavicle -4.47266e-016 -7.15625e-015
lhumerus -29.7682 8.07853 75.6873
lradius 25.2351
lwrist -10.4839
lhand -22.9456 23.3699
lfingers 7.12502
lthumb 3.49564 53.321
rfemur -6.63674 12.4317 19.5162
rtibia 26.8622
rfoot -22.0952 -19.674
rtoes 5.87636
lfemur -3.74705 12.926 -14.4798
ltibia 27.867
lfoot -36.2516 36.724
ltoes 12.4874
119
root 10.5395 18.6445 3.14021 2.82387 -71.3886 -3.24587
lowerback 4.72372 -2.64461 -0.0283528
upperback 1.42091 -3.52586 1.624
thorax -1.07971 -1.7743 1.87592
lowerneck -1.99119 -7.58502 -7.68634
upperneck 27.4161 -11.5373 2.43229
head 9.57295 -6.25841 1.03787
rclavicle 6.23687e-015 1.19271e-015
rhumerus -39.5279 -3.00015 -71.0887
rradius 29.6262
rwrist 17.3912
rhand -22.2288 5.62005
rfingers 7.12502
rthumb 4.18783 -24.3185
lclavicle 6.23687e-015 1.19271e-015
lhumerus -29.9373 8.30065 75.5569
lradius 25.4667
lwrist -10.8713
lhand -22.537 23.3816
lfingers 7.12502
lthumb 3.89024 53.3258
rfemur -6.50017 12.3739 19.9777
rtibia 26.714
rfoot -22.1417 -18.8737
rtoes 6.87402
lfemur -3.97407 13.4719 -13.7758
ltibia 28.7753
lfoot -35.5521 36.7323
ltoes 11.5608
120
root 10.4905 18.645 3.08882 3.73889 -72.0024 -4.26833
lowerback 4.75441 -2.62729 0.407926
upperback 1.50146 -3.48503 1.73391
thorax -1.03448 -1.75581 1.74246
lowerneck -1.87445 -7.47203 -7.59681
upperneck 27.3978 -11.3778 2.32881
head 9.52231 -6.19149 1.01135
rclavicle 2.25124e-014 -1.35174e-014
rhumerus -39.4488 -2.94933 -71.0642
rradius 29.7354
rwrist 17.521
rhand -21.9696 5.46735
rfingers 7.12502
rthumb 4.43809 -24.4661
lclavicle 2.25124e-014 -1.35174e-014
lhumerus -30.0736 8.26256 75.4913
lradius 25.6764
lwrist -11.2544
lhand -21.5476 23.5851
lfingers 7.12502
lthumb 4.84557 53.5096
rfemur -6.32835 12.441 20.4867
rtibia 26.5341
rfoot -21.9359 -18.4293
rtoes 6.96385
lfemur -4.15843 14.0808 -13.0613
ltibia 29.7473
lfoot -34.9992 36.5299
ltoes 10.8648
121
root 10.4384 18.6445 3.03138 4.39473 -72.6904 -5.06357
lowerback 4.80367 -2.56095 0.66827
upperback 1.60467 -3.38784 1.81992
thorax -0.968272 -1.70911 1.67968
lowerneck -1.79942 -7.3854 -7.51852
upperneck 27.462 -11.2715 2.26835
head 9.51601 -6.14654 0.991481
rclavicle 3.31722e-014 -1.66979e-014
rhumerus -39.3628 -2.81544 -71.0631
rradius 29.8355
rwrist 17.7544
rhand -22.0242 5.22207
rfingers 7.12502
rthumb 4.38541 -24.7125
lclavicle 3.31722e-014 -1.66979e-014
lhumerus -30.1868 8.07866 75.5644
lradius 25.8562
lwrist -10.9349
lhand -21.4823 23.6287
lfingers 7.12502
lthumb 4.9087 53.5519
rfemur -6.10964 12.5806 20.9551
rtibia 26.3622
rfoot -21.6294 -18.1418
rtoes 6.42477
lfemur -4.24928 14.7031 -12.3184
ltibia 30.7609
lfoot -34.8777 35.7838
ltoes 12.2112
